<svg width="25" height="25" viewBox="0 0 25 25" fill="none" xmlns="http://www.w3.org/2000/svg">
<path fill-rule="evenodd" clip-rule="evenodd" d="M12.5 25C15.8152 25 18.9946 23.683 21.3388 21.3388C23.683 18.9946 25 15.8152 25 12.5C25 9.18479 23.683 6.00537 21.3388 3.66117C18.9946 1.31696 15.8152 0 12.5 0C9.18479 0 6.00537 1.31696 3.66117 3.66117C1.31696 6.00537 0 9.18479 0 12.5C0 15.8152 1.31696 18.9946 3.66117 21.3388C6.00537 23.683 9.18479 25 12.5 25ZM5.637 19.344L7.053 15.094L13.512 8.668L13.52 8.658H13.516L14.852 7.32C14.9546 7.21838 15.0762 7.13799 15.2098 7.08342C15.3435 7.02885 15.4866 7.00119 15.631 7.002C15.914 7.002 16.197 7.108 16.411 7.32L17.681 8.592C17.8853 8.79979 17.9999 9.07956 17.9999 9.371C17.9999 9.66244 17.8853 9.94221 17.681 10.15L16.344 11.486L16.336 11.476L9.885 17.928L5.637 19.344ZM7.219 17.762L9.002 17.168L7.812 15.978L7.219 17.762ZM9.822 16.574L15.282 11.117L13.867 9.725L8.408 15.16L9.822 16.574ZM15.994 10.42L16.973 9.441C17.019 9.396 17.019 9.343 16.973 9.297L15.703 8.025C15.657 7.979 15.605 7.979 15.559 8.025L14.57 9.015L15.994 10.42Z" fill="#595BD4"/>
</svg>
